<svg width="64" height="64" viewBox="0 0 64 64" fill="none" xmlns="http://www.w3.org/2000/svg" role="img" aria-label="EpiAware">
  <title>EpiAware</title>
  <desc>Several component distributions combining into one joint distribution.</desc>
  <defs>
    <linearGradient id="joint" x1="0" y1="52" x2="0" y2="10" gradientUnits="userSpaceOnUse">
      <stop offset="0" stop-color="#14708E"/>
      <stop offset="1" stop-color="#2CA6A4"/>
    </linearGradient>
  </defs>
  <path d="M4 52 H60" stroke="#9DB4C0" stroke-width="1.4" stroke-linecap="round" opacity="0.4"/>
  <g fill="#2CA6A4" fill-opacity="0.10" stroke="none">
    <path d="M 5.0 50.7 C 5.3 50.6, 6.1 50.2, 6.6 49.9 C 7.1 49.6, 7.7 49.2, 8.2 48.8 C 8.8 48.3, 9.3 47.8, 9.8 47.3 C 10.4 46.8, 10.9 46.2, 11.4 45.6 C 12.0 45.0, 12.5 44.4, 13.0 43.8 C 13.6 43.2, 14.1 42.6, 14.7 42.1 C 15.2 41.6, 15.7 41.1, 16.3 40.7 C 16.8 40.3, 17.3 40.0, 17.9 39.9 C 18.4 39.7, 18.9 39.6, 19.5 39.7 C 20.0 39.8, 20.6 40.0, 21.1 40.3 C 21.6 40.6, 22.2 41.0, 22.7 41.5 C 23.2 41.9, 23.8 42.5, 24.3 43.1 C 24.9 43.7, 25.4 44.3, 25.9 44.9 C 26.5 45.5, 27.0 46.1, 27.5 46.7 C 28.1 47.2, 28.6 47.7, 29.1 48.2 C 29.7 48.7, 30.2 49.1, 30.8 49.5 C 31.3 49.8, 31.8 50.1, 32.4 50.4 C 32.9 50.7, 33.4 50.9, 34.0 51.1 C 34.5 51.2, 35.0 51.4, 35.6 51.5 C 36.1 51.6, 36.7 51.7, 37.2 51.7 C 37.7 51.8, 38.5 51.8, 38.8 51.9 L 38.8 52.0 L 5.0 52.0 Z"/>
    <path d="M 5.7 51.8 C 6.0 51.8, 7.0 51.7, 7.6 51.5 C 8.2 51.4, 8.8 51.3, 9.5 51.0 C 10.1 50.8, 10.7 50.5, 11.4 50.1 C 12.0 49.8, 12.6 49.3, 13.2 48.7 C 13.9 48.1, 14.5 47.4, 15.1 46.6 C 15.8 45.8, 16.4 44.9, 17.0 43.9 C 17.6 42.9, 18.3 41.8, 18.9 40.8 C 19.5 39.8, 20.2 38.6, 20.8 37.7 C 21.4 36.7, 22.0 35.8, 22.7 35.1 C 23.3 34.5, 23.9 33.9, 24.6 33.7 C 25.2 33.5, 25.8 33.5, 26.4 33.7 C 27.1 33.9, 27.7 34.5, 28.3 35.1 C 29.0 35.8, 29.6 36.7, 30.2 37.7 C 30.8 38.6, 31.5 39.8, 32.1 40.8 C 32.7 41.8, 33.4 42.9, 34.0 43.9 C 34.6 44.9, 35.2 45.8, 35.9 46.6 C 36.5 47.4, 37.1 48.1, 37.8 48.7 C 38.4 49.3, 39.0 49.8, 39.6 50.1 C 40.3 50.5, 40.9 50.8, 41.5 51.0 C 42.2 51.3, 42.8 51.4, 43.4 51.5 C 44.0 51.7, 45.0 51.8, 45.3 51.8 L 45.3 52.0 L 5.7 52.0 Z"/>
    <path d="M 12.2 51.8 C 12.5 51.7, 13.5 51.6, 14.1 51.4 C 14.7 51.3, 15.3 51.1, 16.0 50.8 C 16.6 50.6, 17.2 50.2, 17.9 49.8 C 18.5 49.3, 19.1 48.8, 19.7 48.1 C 20.4 47.4, 21.0 46.6, 21.6 45.6 C 22.3 44.6, 22.9 43.5, 23.5 42.4 C 24.1 41.2, 24.8 39.9, 25.4 38.7 C 26.0 37.4, 26.7 36.1, 27.3 35.0 C 27.9 33.8, 28.5 32.7, 29.2 31.9 C 29.8 31.1, 30.4 30.5, 31.1 30.2 C 31.7 29.9, 32.3 29.9, 32.9 30.2 C 33.6 30.5, 34.2 31.1, 34.8 31.9 C 35.5 32.7, 36.1 33.8, 36.7 35.0 C 37.3 36.1, 38.0 37.4, 38.6 38.7 C 39.2 39.9, 39.9 41.2, 40.5 42.4 C 41.1 43.5, 41.7 44.6, 42.4 45.6 C 43.0 46.6, 43.6 47.4, 44.3 48.1 C 44.9 48.8, 45.5 49.3, 46.1 49.8 C 46.8 50.2, 47.4 50.6, 48.0 50.8 C 48.7 51.1, 49.3 51.3, 49.9 51.4 C 50.5 51.6, 51.5 51.7, 51.8 51.8 L 51.8 52.0 L 12.2 52.0 Z"/>
    <path d="M 18.7 51.8 C 19.0 51.8, 20.0 51.7, 20.6 51.5 C 21.2 51.4, 21.8 51.3, 22.5 51.0 C 23.1 50.8, 23.7 50.5, 24.4 50.1 C 25.0 49.8, 25.6 49.3, 26.2 48.7 C 26.9 48.1, 27.5 47.4, 28.1 46.6 C 28.8 45.8, 29.4 44.9, 30.0 43.9 C 30.6 42.9, 31.3 41.8, 31.9 40.8 C 32.5 39.8, 33.2 38.6, 33.8 37.7 C 34.4 36.7, 35.0 35.8, 35.7 35.1 C 36.3 34.5, 36.9 33.9, 37.6 33.7 C 38.2 33.5, 38.8 33.5, 39.4 33.7 C 40.1 33.9, 40.7 34.5, 41.3 35.1 C 42.0 35.8, 42.6 36.7, 43.2 37.7 C 43.8 38.6, 44.5 39.8, 45.1 40.8 C 45.7 41.8, 46.4 42.9, 47.0 43.9 C 47.6 44.9, 48.2 45.8, 48.9 46.6 C 49.5 47.4, 50.1 48.1, 50.8 48.7 C 51.4 49.3, 52.0 49.8, 52.6 50.1 C 53.3 50.5, 53.9 50.8, 54.5 51.0 C 55.2 51.3, 55.8 51.4, 56.4 51.5 C 57.0 51.7, 58.0 51.8, 58.3 51.8 L 58.3 52.0 L 18.7 52.0 Z"/>
    <path d="M 25.2 51.9 C 25.5 51.8, 26.3 51.8, 26.8 51.7 C 27.3 51.7, 27.9 51.6, 28.4 51.5 C 29.0 51.4, 29.5 51.2, 30.0 51.1 C 30.6 50.9, 31.1 50.7, 31.6 50.4 C 32.2 50.1, 32.7 49.8, 33.2 49.5 C 33.8 49.1, 34.3 48.7, 34.9 48.2 C 35.4 47.7, 35.9 47.2, 36.5 46.7 C 37.0 46.1, 37.5 45.5, 38.1 44.9 C 38.6 44.3, 39.1 43.7, 39.7 43.1 C 40.2 42.5, 40.8 41.9, 41.3 41.5 C 41.8 41.0, 42.4 40.6, 42.9 40.3 C 43.4 40.0, 44.0 39.8, 44.5 39.7 C 45.1 39.6, 45.6 39.7, 46.1 39.9 C 46.7 40.0, 47.2 40.3, 47.7 40.7 C 48.3 41.1, 48.8 41.6, 49.3 42.1 C 49.9 42.6, 50.4 43.2, 51.0 43.8 C 51.5 44.4, 52.0 45.0, 52.6 45.6 C 53.1 46.2, 53.6 46.8, 54.2 47.3 C 54.7 47.8, 55.2 48.3, 55.8 48.8 C 56.3 49.2, 56.9 49.6, 57.4 49.9 C 57.9 50.2, 58.7 50.6, 59.0 50.7 L 59.0 52.0 L 25.2 52.0 Z"/>
  </g>
<g fill="none" stroke="#14708E" stroke-width="0.9" stroke-opacity="0.5" stroke-linejoin="round" stroke-linecap="round">
    <path d="M 5.0 50.7 C 5.3 50.6, 6.1 50.2, 6.6 49.9 C 7.1 49.6, 7.7 49.2, 8.2 48.8 C 8.8 48.3, 9.3 47.8, 9.8 47.3 C 10.4 46.8, 10.9 46.2, 11.4 45.6 C 12.0 45.0, 12.5 44.4, 13.0 43.8 C 13.6 43.2, 14.1 42.6, 14.7 42.1 C 15.2 41.6, 15.7 41.1, 16.3 40.7 C 16.8 40.3, 17.3 40.0, 17.9 39.9 C 18.4 39.7, 18.9 39.6, 19.5 39.7 C 20.0 39.8, 20.6 40.0, 21.1 40.3 C 21.6 40.6, 22.2 41.0, 22.7 41.5 C 23.2 41.9, 23.8 42.5, 24.3 43.1 C 24.9 43.7, 25.4 44.3, 25.9 44.9 C 26.5 45.5, 27.0 46.1, 27.5 46.7 C 28.1 47.2, 28.6 47.7, 29.1 48.2 C 29.7 48.7, 30.2 49.1, 30.8 49.5 C 31.3 49.8, 31.8 50.1, 32.4 50.4 C 32.9 50.7, 33.4 50.9, 34.0 51.1 C 34.5 51.2, 35.0 51.4, 35.6 51.5 C 36.1 51.6, 36.7 51.7, 37.2 51.7 C 37.7 51.8, 38.5 51.8, 38.8 51.9 L 38.8 52.0 L 5.0 52.0 Z"/>
    <path d="M 5.7 51.8 C 6.0 51.8, 7.0 51.7, 7.6 51.5 C 8.2 51.4, 8.8 51.3, 9.5 51.0 C 10.1 50.8, 10.7 50.5, 11.4 50.1 C 12.0 49.8, 12.6 49.3, 13.2 48.7 C 13.9 48.1, 14.5 47.4, 15.1 46.6 C 15.8 45.8, 16.4 44.9, 17.0 43.9 C 17.6 42.9, 18.3 41.8, 18.9 40.8 C 19.5 39.8, 20.2 38.6, 20.8 37.7 C 21.4 36.7, 22.0 35.8, 22.7 35.1 C 23.3 34.5, 23.9 33.9, 24.6 33.7 C 25.2 33.5, 25.8 33.5, 26.4 33.7 C 27.1 33.9, 27.7 34.5, 28.3 35.1 C 29.0 35.8, 29.6 36.7, 30.2 37.7 C 30.8 38.6, 31.5 39.8, 32.1 40.8 C 32.7 41.8, 33.4 42.9, 34.0 43.9 C 34.6 44.9, 35.2 45.8, 35.9 46.6 C 36.5 47.4, 37.1 48.1, 37.8 48.7 C 38.4 49.3, 39.0 49.8, 39.6 50.1 C 40.3 50.5, 40.9 50.8, 41.5 51.0 C 42.2 51.3, 42.8 51.4, 43.4 51.5 C 44.0 51.7, 45.0 51.8, 45.3 51.8 L 45.3 52.0 L 5.7 52.0 Z"/>
    <path d="M 12.2 51.8 C 12.5 51.7, 13.5 51.6, 14.1 51.4 C 14.7 51.3, 15.3 51.1, 16.0 50.8 C 16.6 50.6, 17.2 50.2, 17.9 49.8 C 18.5 49.3, 19.1 48.8, 19.7 48.1 C 20.4 47.4, 21.0 46.6, 21.6 45.6 C 22.3 44.6, 22.9 43.5, 23.5 42.4 C 24.1 41.2, 24.8 39.9, 25.4 38.7 C 26.0 37.4, 26.7 36.1, 27.3 35.0 C 27.9 33.8, 28.5 32.7, 29.2 31.9 C 29.8 31.1, 30.4 30.5, 31.1 30.2 C 31.7 29.9, 32.3 29.9, 32.9 30.2 C 33.6 30.5, 34.2 31.1, 34.8 31.9 C 35.5 32.7, 36.1 33.8, 36.7 35.0 C 37.3 36.1, 38.0 37.4, 38.6 38.7 C 39.2 39.9, 39.9 41.2, 40.5 42.4 C 41.1 43.5, 41.7 44.6, 42.4 45.6 C 43.0 46.6, 43.6 47.4, 44.3 48.1 C 44.9 48.8, 45.5 49.3, 46.1 49.8 C 46.8 50.2, 47.4 50.6, 48.0 50.8 C 48.7 51.1, 49.3 51.3, 49.9 51.4 C 50.5 51.6, 51.5 51.7, 51.8 51.8 L 51.8 52.0 L 12.2 52.0 Z"/>
    <path d="M 18.7 51.8 C 19.0 51.8, 20.0 51.7, 20.6 51.5 C 21.2 51.4, 21.8 51.3, 22.5 51.0 C 23.1 50.8, 23.7 50.5, 24.4 50.1 C 25.0 49.8, 25.6 49.3, 26.2 48.7 C 26.9 48.1, 27.5 47.4, 28.1 46.6 C 28.8 45.8, 29.4 44.9, 30.0 43.9 C 30.6 42.9, 31.3 41.8, 31.9 40.8 C 32.5 39.8, 33.2 38.6, 33.8 37.7 C 34.4 36.7, 35.0 35.8, 35.7 35.1 C 36.3 34.5, 36.9 33.9, 37.6 33.7 C 38.2 33.5, 38.8 33.5, 39.4 33.7 C 40.1 33.9, 40.7 34.5, 41.3 35.1 C 42.0 35.8, 42.6 36.7, 43.2 37.7 C 43.8 38.6, 44.5 39.8, 45.1 40.8 C 45.7 41.8, 46.4 42.9, 47.0 43.9 C 47.6 44.9, 48.2 45.8, 48.9 46.6 C 49.5 47.4, 50.1 48.1, 50.8 48.7 C 51.4 49.3, 52.0 49.8, 52.6 50.1 C 53.3 50.5, 53.9 50.8, 54.5 51.0 C 55.2 51.3, 55.8 51.4, 56.4 51.5 C 57.0 51.7, 58.0 51.8, 58.3 51.8 L 58.3 52.0 L 18.7 52.0 Z"/>
    <path d="M 25.2 51.9 C 25.5 51.8, 26.3 51.8, 26.8 51.7 C 27.3 51.7, 27.9 51.6, 28.4 51.5 C 29.0 51.4, 29.5 51.2, 30.0 51.1 C 30.6 50.9, 31.1 50.7, 31.6 50.4 C 32.2 50.1, 32.7 49.8, 33.2 49.5 C 33.8 49.1, 34.3 48.7, 34.9 48.2 C 35.4 47.7, 35.9 47.2, 36.5 46.7 C 37.0 46.1, 37.5 45.5, 38.1 44.9 C 38.6 44.3, 39.1 43.7, 39.7 43.1 C 40.2 42.5, 40.8 41.9, 41.3 41.5 C 41.8 41.0, 42.4 40.6, 42.9 40.3 C 43.4 40.0, 44.0 39.8, 44.5 39.7 C 45.1 39.6, 45.6 39.7, 46.1 39.9 C 46.7 40.0, 47.2 40.3, 47.7 40.7 C 48.3 41.1, 48.8 41.6, 49.3 42.1 C 49.9 42.6, 50.4 43.2, 51.0 43.8 C 51.5 44.4, 52.0 45.0, 52.6 45.6 C 53.1 46.2, 53.6 46.8, 54.2 47.3 C 54.7 47.8, 55.2 48.3, 55.8 48.8 C 56.3 49.2, 56.9 49.6, 57.4 49.9 C 57.9 50.2, 58.7 50.6, 59.0 50.7 L 59.0 52.0 L 25.2 52.0 Z"/>
  </g>
  <path d="M 5.0 50.9 C 5.2 50.7, 5.9 50.5, 6.4 50.2 C 6.8 50.0, 7.3 49.7, 7.8 49.3 C 8.2 49.0, 8.7 48.6, 9.2 48.1 C 9.6 47.6, 10.1 47.1, 10.5 46.5 C 11.0 46.0, 11.5 45.3, 11.9 44.6 C 12.4 43.9, 12.8 43.2, 13.3 42.4 C 13.8 41.5, 14.2 40.7, 14.7 39.8 C 15.2 38.9, 15.6 37.9, 16.1 37.0 C 16.5 36.0, 17.0 35.0, 17.5 34.0 C 17.9 33.0, 18.4 32.0, 18.8 31.0 C 19.3 30.0, 19.8 29.0, 20.2 28.0 C 20.7 27.1, 21.2 26.1, 21.6 25.2 C 22.1 24.3, 22.5 23.4, 23.0 22.6 C 23.5 21.8, 23.9 21.0, 24.4 20.3 C 24.8 19.5, 25.3 18.9, 25.8 18.3 C 26.2 17.6, 26.7 17.1, 27.2 16.6 C 27.6 16.1, 28.1 15.7, 28.5 15.3 C 29.0 15.0, 29.5 14.7, 29.9 14.5 C 30.4 14.3, 30.8 14.1, 31.3 14.1 C 31.8 14.0, 32.2 14.0, 32.7 14.1 C 33.2 14.1, 33.6 14.3, 34.1 14.5 C 34.5 14.7, 35.0 15.0, 35.5 15.3 C 35.9 15.7, 36.4 16.1, 36.8 16.6 C 37.3 17.1, 37.8 17.6, 38.2 18.3 C 38.7 18.9, 39.2 19.5, 39.6 20.3 C 40.1 21.0, 40.5 21.8, 41.0 22.6 C 41.5 23.4, 41.9 24.3, 42.4 25.2 C 42.8 26.1, 43.3 27.1, 43.8 28.0 C 44.2 29.0, 44.7 30.0, 45.2 31.0 C 45.6 32.0, 46.1 33.0, 46.5 34.0 C 47.0 35.0, 47.5 36.0, 47.9 37.0 C 48.4 37.9, 48.8 38.9, 49.3 39.8 C 49.8 40.7, 50.2 41.5, 50.7 42.4 C 51.2 43.2, 51.6 43.9, 52.1 44.6 C 52.5 45.3, 53.0 46.0, 53.5 46.5 C 53.9 47.1, 54.4 47.6, 54.8 48.1 C 55.3 48.6, 55.8 49.0, 56.2 49.3 C 56.7 49.7, 57.2 50.0, 57.6 50.2 C 58.1 50.5, 58.8 50.7, 59.0 50.9" fill="none" stroke="url(#joint)" stroke-width="4.2" stroke-linecap="round" stroke-linejoin="round"/>
</svg>
